<mxfile host="app.diagrams.net" modified="2023-09-22T19:10:41.338Z" agent="Mozilla/5.0 (Windows NT 10.0; Win64; x64) AppleWebKit/537.36 (KHTML, like Gecko) Chrome/116.0.0.0 Safari/537.36" version="21.8.1" etag="Md7_62M0x-ctkNunQIYa" type="github">
  <diagram name="Page-1" id="2VwFT9bYuU6ggVQZSgMC">
    <mxGraphModel>
      <root>
        <mxCell id="0" />
        <mxCell id="1" parent="0" />
      </root>
    </mxGraphModel>
  </diagram>
</mxfile>
